<?xml version="1.0" encoding="UTF-8"?>
<svg viewBox="35 0 320 120" xmlns="http://www.w3.org/2000/svg">
  <path d="m 159.87238,98.502918 c -5.4382,-3.339958 -10.11877,-6.012208 -10.40127,-5.938332 -0.28249,0.07388 -4.45182,2.461062 -9.26516,5.304867 -4.81335,2.843797 -8.81597,5.170547 -8.89471,5.170547 -0.0787,0 -0.1,-0.81726 -0.0472,-1.81612 l 0.096,-1.81613 9.2,-5.420486 9.2,-5.420483 -0.0316,-4.363392 c -0.0174,-2.399863 -0.12541,-5.139165 -0.24,-6.087335 L 149.28,76.392109 140,70.908387 130.72,65.424662 130.6379,42.312333 C 130.59274,29.600549 130.6027,19.2 130.66003,19.2 c 0.0573,0 9.68745,-1.639195 21.40026,-3.642655 l 21.29601,-3.642655 19.16185,3.584532 19.16186,3.584532 0.0719,22.538124 0.0719,22.538122 -11.03882,6.351312 -11.03883,6.351312 0.087,5.924947 0.087,5.924951 8.64,5.10398 c 4.752,2.807188 8.82795,5.21305 9.05768,5.346356 0.2851,0.16544 0.38667,0.810012 0.32,2.030702 l -0.0977,1.78832 -9.0864,-5.377003 -9.08639,-5.377008 -3.39361,2.097273 c -4.0328,2.492298 -14.90408,9.236058 -15.84946,9.831868 -0.60454,0.381 -1.5515,-0.12642 -10.55177,-5.654092 z m 18.60762,-3.103769 8.08001,-4.992691 v -5.683229 c 0,-3.125776 -0.054,-5.683229 -0.11991,-5.683229 -0.066,0 -3.81568,2.088 -8.33274,4.64 -4.51705,2.552 -8.28611,4.64 -8.37568,4.64 -0.0896,0 -3.7437,-2.087856 -8.12027,-4.639683 -4.37658,-2.551827 -8.18556,-4.727232 -8.46441,-4.834237 -0.45108,-0.173094 -0.507,0.440166 -0.507,5.560502 0,4.308621 0.10375,5.841152 0.41278,6.097623 1.38093,1.146077 16.71123,10.236555 16.99785,10.079305 0.19216,-0.10542 3.98537,-2.438384 8.42937,-5.184361 z" fill="#ffffff" stroke="#000000" stroke-width="1"/>
</svg>