<?xml version="1.0" encoding="UTF-8"?>
<svg viewBox="245 0 105 120" xmlns="http://www.w3.org/2000/svg">
  <path d="m 275.71779,97.744419 C 269.57856,93.968989 264.50747,90.88 264.44868,90.88 c -0.0588,0 -4.72618,2.727987 -10.37199,6.062195 l -10.26511,6.062195 0.0942,-2.13362 0.0942,-2.133608 10.08,-5.943348 10.08,-5.943347 0.0861,-6.87567 0.086,-6.875671 -10.87781,-6.389561 -10.87782,-6.389565 -0.008,-26 c -0.005,-14.3 0.0998,-26.001423 0.23177,-26.0031626 0.132,-0.00173 11.06537,-1.8562057 24.29637,-4.1210364 l 24.05635,-4.11787419 21.70364,4.05272949 21.70364,4.0527293 0.0681,25.4283074 0.0681,25.428307 -12.47431,7.164509 -12.47429,7.164509 0.0862,6.738649 0.0862,6.73865 10.08,5.952537 10.08,5.952541 0.0943,2.129195 0.0943,2.12919 -10.2774,-6.064887 C 314.33857,93.6092 309.64864,90.88 309.56908,90.88 c -0.0796,0 -5.02928,3.025501 -10.99938,6.723334 -5.9701,3.697836 -11.04259,6.786826 -11.27221,6.864416 -0.22961,0.0776 -5.44048,-2.9479 -11.5797,-6.723331 z m 20.92222,-3.14023 9.44,-5.859178 0.0866,-6.452505 c 0.0476,-3.548877 0.006,-6.452506 -0.0927,-6.452506 -0.0986,0 -4.42432,2.38921 -9.61262,5.30935 L 287.02801,86.458704 281.034,82.95273 C 272.51974,77.972618 268.22225,75.52 268.01037,75.52 c -0.10084,0 -0.14443,2.985606 -0.0969,6.634678 l 0.0865,6.634679 9.44,5.823069 c 5.192,3.202688 9.512,5.829344 9.6,5.837004 0.088,0.008 4.408,-2.622694 9.6,-5.845241 z M 285.34982,23.163146 C 285.17179,22.985115 246.6679,12.16 246.21269,12.16 c -0.3924,0 -0.4453,3.261185 -0.37479,23.102506 l 0.0821,23.102508 5.92,3.503255 c 3.256,1.926793 12.112,7.073315 19.68,11.436723 l 13.76,7.933466 0.0817,-28.990861 c 0.0449,-15.944973 0.0396,-29.032976 -0.0119,-29.084451 z m 13.76726,52.388348 c 5.58961,-3.150678 15.13093,-8.605222 21.20293,-12.121212 l 11.04,-6.392704 0.0821,-22.598791 C 331.48734,22.009455 331.4226,11.84 331.29828,11.84 c -0.12429,0 -9.77328,2.480302 -21.44214,5.511783 l -21.21613,5.511783 v 29.208216 c 0,16.064522 0.0707,29.208218 0.15707,29.208218 0.0864,0 4.73038,-2.577827 10.32,-5.728506 z m 6.56836,-60.547645 c 10.24901,-2.659883 18.74174,-4.934261 18.87274,-5.0541725 0.13098,-0.119912 -7.33476,-1.6350029 -16.59057,-3.3668685 L 291.13886,3.4339616 271.67622,6.7569808 c -10.70446,1.8276605 -19.40544,3.3802872 -19.3355,3.4502812 0.23792,0.23814 33.25571,9.563025 33.98472,9.597967 0.39898,0.01912 9.11098,-2.141497 19.36,-4.80138 z" fill="#000000"/>
</svg>