<?xml version="1.0" encoding="UTF-8"?>
<svg viewBox="245 0 105 120" xmlns="http://www.w3.org/2000/svg">
  <path d="m 159.87238,98.502918 c -5.4382,-3.339958 -10.11877,-6.012208 -10.40127,-5.938332 -0.28249,0.07388 -4.45182,2.461062 -9.26516,5.304867 -4.81335,2.843797 -8.81597,5.170547 -8.89471,5.170547 -0.0787,0 -0.1,-0.81726 -0.0472,-1.81612 l 0.096,-1.81613 9.2,-5.420486 9.2,-5.420483 -0.0316,-4.363392 c -0.0174,-2.399863 -0.12541,-5.139165 -0.24,-6.087335 L 149.28,76.392109 140,70.908387 130.72,65.424662 130.6379,42.312333 C 130.59274,29.600549 130.6027,19.2 130.66003,19.2 c 0.0573,0 9.68745,-1.639195 21.40026,-3.642655 l 21.29601,-3.642655 19.16185,3.584532 19.16186,3.584532 0.0719,22.538124 0.0719,22.538122 -11.03882,6.351312 -11.03883,6.351312 0.087,5.924947 0.087,5.924951 8.64,5.10398 c 4.752,2.807188 8.82795,5.21305 9.05768,5.346356 0.2851,0.16544 0.38667,0.810012 0.32,2.030702 l -0.0977,1.78832 -9.0864,-5.377003 -9.08639,-5.377008 -3.39361,2.097273 c -4.0328,2.492298 -14.90408,9.236058 -15.84946,9.831868 -0.60454,0.381 -1.5515,-0.12642 -10.55177,-5.654092 z m 18.60762,-3.103769 8.08001,-4.992691 v -5.683229 c 0,-3.125776 -0.054,-5.683229 -0.11991,-5.683229 -0.066,0 -3.81568,2.088 -8.33274,4.64 -4.51705,2.552 -8.28611,4.64 -8.37568,4.64 -0.0896,0 -3.7437,-2.087856 -8.12027,-4.639683 -4.37658,-2.551827 -8.18556,-4.727232 -8.46441,-4.834237 -0.45108,-0.173094 -0.507,0.440166 -0.507,5.560502 0,4.308621 0.10375,5.841152 0.41278,6.097623 1.38093,1.146077 16.71123,10.236555 16.99785,10.079305 0.19216,-0.10542 3.98537,-2.438384 8.42937,-5.184361 z M 168.17854,32.391866 c -0.0799,-0.07991 -7.74878,-2.289937 -17.04192,-4.911163 C 141.84348,24.859477 134.06,22.648518 133.84,22.567462 c -0.31738,-0.116937 -0.4,4.106295 -0.4,20.447312 v 20.594688 l 7.92,4.654484 c 4.356,2.559964 12.168,7.095904 17.36,10.079865 l 9.44,5.425383 0.0819,-25.616016 c 0.0451,-14.088807 0.0165,-25.681399 -0.0634,-25.761312 z M 179.2,79.424966 c 3.608,-2.021248 11.78001,-6.692316 18.16001,-10.38015 l 11.6,-6.705155 V 42.36983 c 0,-10.983406 -0.1184,-19.96983 -0.26311,-19.96983 -0.14471,0 -8.56565,2.16 -18.7132,4.8 C 179.83616,29.84 171.45856,32 171.36681,32 171.27507,32 171.2,43.669066 171.2,57.931258 v 25.93126 l 0.72,-0.381276 c 0.396,-0.209703 3.672,-2.035028 7.28,-4.056276 z M 186.34668,25.0906 c 9.18133,-2.39217 16.73603,-4.390876 16.78823,-4.441569 0.0522,-0.05069 -0.23581,-0.172986 -0.64,-0.271761 C 200.41359,19.868646 173.97494,15.04 173.27136,15.04 c -0.93638,0 -32.57637,5.355071 -33.65863,5.696724 -0.49801,0.157216 3.66784,1.467075 14.08,4.427145 8.133,2.312128 15.05128,4.220128 15.37395,4.24 0.32267,0.01987 8.09867,-1.921099 17.28,-4.313269 z" fill="#000000"/>
</svg>