<?xml version="1.0" encoding="UTF-8"?>
<svg viewBox="35 0 320 120" xmlns="http://www.w3.org/2000/svg">
  <path d="m 159.87238,98.502918 c -5.4382,-3.339958 -10.11877,-6.012208 -10.40127,-5.938332 -0.28249,0.07388 -4.45182,2.461062 -9.26516,5.304867 -4.81335,2.843797 -8.81597,5.170547 -8.89471,5.170547 -0.0787,0 -0.1,-0.81726 -0.0472,-1.81612 l 0.096,-1.81613 9.2,-5.420486 9.2,-5.420483 -0.0316,-4.363392 c -0.0174,-2.399863 -0.12541,-5.139165 -0.24,-6.087335 L 149.28,76.392109 140,70.908387 130.72,65.424662 130.6379,42.312333 C 130.59274,29.600549 130.6027,19.2 130.66003,19.2 c 0.0573,0 9.68745,-1.639195 21.40026,-3.642655 l 21.29601,-3.642655 19.16185,3.584532 19.16186,3.584532 0.0719,22.538124 0.0719,22.538122 -11.03882,6.351312 -11.03883,6.351312 0.087,5.924947 0.087,5.924951 8.64,5.10398 c 4.752,2.807188 8.82795,5.21305 9.05768,5.346356 0.2851,0.16544 0.38667,0.810012 0.32,2.030702 l -0.0977,1.78832 -9.0864,-5.377003 -9.08639,-5.377008 -3.39361,2.097273 c -4.0328,2.492298 -14.90408,9.236058 -15.84946,9.831868 -0.60454,0.381 -1.5515,-0.12642 -10.55177,-5.654092 z m 18.60762,-3.103769 8.08001,-4.992691 v -5.683229 c 0,-3.125776 -0.054,-5.683229 -0.11991,-5.683229 -0.066,0 -3.81568,2.088 -8.33274,4.64 -4.51705,2.552 -8.28611,4.64 -8.37568,4.64 -0.0896,0 -3.7437,-2.087856 -8.12027,-4.639683 -4.37658,-2.551827 -8.18556,-4.727232 -8.46441,-4.834237 -0.45108,-0.173094 -0.507,0.440166 -0.507,5.560502 0,4.308621 0.10375,5.841152 0.41278,6.097623 1.38093,1.146077 16.71123,10.236555 16.99785,10.079305 0.19216,-0.10542 3.98537,-2.438384 8.42937,-5.184361 z M 168.17854,32.391866 c -0.0799,-0.07991 -7.74878,-2.289937 -17.04192,-4.911163 C 141.84348,24.859477 134.06,22.648518 133.84,22.567462 c -0.31738,-0.116937 -0.4,4.106295 -0.4,20.447312 v 20.594688 l 7.92,4.654484 c 4.356,2.559964 12.168,7.095904 17.36,10.079865 l 9.44,5.425383 0.0819,-25.616016 c 0.0451,-14.088807 0.0165,-25.681399 -0.0634,-25.761312 z M 179.2,79.424966 c 3.608,-2.021248 11.78001,-6.692316 18.16001,-10.38015 l 11.6,-6.705155 V 42.36983 c 0,-10.983406 -0.1184,-19.96983 -0.26311,-19.96983 -0.14471,0 -8.56565,2.16 -18.7132,4.8 C 179.83616,29.84 171.45856,32 171.36681,32 171.27507,32 171.2,43.669066 171.2,57.931258 v 25.93126 l 0.72,-0.381276 c 0.396,-0.209703 3.672,-2.035028 7.28,-4.056276 z M 186.34668,25.0906 c 9.18133,-2.39217 16.73603,-4.390876 16.78823,-4.441569 0.0522,-0.05069 -0.23581,-0.172986 -0.64,-0.271761 C 200.41359,19.868646 173.97494,15.04 173.27136,15.04 c -0.93638,0 -32.57637,5.355071 -33.65863,5.696724 -0.49801,0.157216 3.66784,1.467075 14.08,4.427145 8.133,2.312128 15.05128,4.220128 15.37395,4.24 0.32267,0.01987 8.09867,-1.921099 17.28,-4.313269 z m 89.37111,72.653819 C 269.57856,93.968989 264.50747,90.88 264.44868,90.88 c -0.0588,0 -4.72618,2.727987 -10.37199,6.062195 l -10.26511,6.062195 0.0942,-2.13362 0.0942,-2.133608 10.08,-5.943348 10.08,-5.943347 0.0861,-6.87567 0.086,-6.875671 -10.87781,-6.389561 -10.87782,-6.389565 -0.008,-26 c -0.005,-14.3 0.0998,-26.001423 0.23177,-26.0031626 0.132,-0.00173 11.06537,-1.8562057 24.29637,-4.1210364 l 24.05635,-4.11787419 21.70364,4.05272949 21.70364,4.0527293 0.0681,25.4283074 0.0681,25.428307 -12.47431,7.164509 -12.47429,7.164509 0.0862,6.738649 0.0862,6.73865 10.08,5.952537 10.08,5.952541 0.0943,2.129195 0.0943,2.12919 -10.2774,-6.064887 C 314.33857,93.6092 309.64864,90.88 309.56908,90.88 c -0.0796,0 -5.02928,3.025501 -10.99938,6.723334 -5.9701,3.697836 -11.04259,6.786826 -11.27221,6.864416 -0.22961,0.0776 -5.44048,-2.9479 -11.5797,-6.723331 z m 20.92222,-3.14023 9.44,-5.859178 0.0866,-6.452505 c 0.0476,-3.548877 0.006,-6.452506 -0.0927,-6.452506 -0.0986,0 -4.42432,2.38921 -9.61262,5.30935 L 287.02801,86.458704 281.034,82.95273 C 272.51974,77.972618 268.22225,75.52 268.01037,75.52 c -0.10084,0 -0.14443,2.985606 -0.0969,6.634678 l 0.0865,6.634679 9.44,5.823069 c 5.192,3.202688 9.512,5.829344 9.6,5.837004 0.088,0.008 4.408,-2.622694 9.6,-5.845241 z M 285.34982,23.163146 C 285.17179,22.985115 246.6679,12.16 246.21269,12.16 c -0.3924,0 -0.4453,3.261185 -0.37479,23.102506 l 0.0821,23.102508 5.92,3.503255 c 3.256,1.926793 12.112,7.073315 19.68,11.436723 l 13.76,7.933466 0.0817,-28.990861 c 0.0449,-15.944973 0.0396,-29.032976 -0.0119,-29.084451 z m 13.76726,52.388348 c 5.58961,-3.150678 15.13093,-8.605222 21.20293,-12.121212 l 11.04,-6.392704 0.0821,-22.598791 C 331.48734,22.009455 331.4226,11.84 331.29828,11.84 c -0.12429,0 -9.77328,2.480302 -21.44214,5.511783 l -21.21613,5.511783 v 29.208216 c 0,16.064522 0.0707,29.208218 0.15707,29.208218 0.0864,0 4.73038,-2.577827 10.32,-5.728506 z m 6.56836,-60.547645 c 10.24901,-2.659883 18.74174,-4.934261 18.87274,-5.0541725 0.13098,-0.119912 -7.33476,-1.6350029 -16.59057,-3.3668685 L 291.13886,3.4339616 271.67622,6.7569808 c -10.70446,1.8276605 -19.40544,3.3802872 -19.3355,3.4502812 0.23792,0.23814 33.25571,9.563025 33.98472,9.597967 0.39898,0.01912 9.11098,-2.141497 19.36,-4.80138 z M 60.16531,99.51672 c -4.282915,-2.624365 -7.872208,-4.726214 -7.976211,-4.670781 -0.211498,0.11273 -8.12297,4.75976 -11.949098,7.018641 l -2.48,1.46416 v -1.67531 -1.675308 l 7.2,-4.262743 7.2,-4.262742 v -4.396723 c 0,-3.794032 -0.07676,-4.461485 -0.56,-4.869188 -0.308,-0.259856 -3.693184,-2.3131 -7.522627,-4.562764 L 37.114747,73.533661 37.197374,55.41183 37.280001,37.29 54.049182,34.428173 70.81836,31.566345 85.969183,34.400797 101.12,37.235248 V 54.905626 72.576 l -8.559998,4.942515 -8.56,4.942515 v 4.58153 4.581533 l 6.88,4.068806 6.880001,4.068807 0.09672,1.639144 c 0.0532,0.90153 0.02877,1.63915 -0.05427,1.63915 -0.08304,0 -3.33392,-1.87682 -7.224167,-4.17071 l -7.073177,-4.170711 -7.432557,4.594362 c -4.087904,2.526899 -7.587258,4.684579 -7.776343,4.794859 -0.189085,0.11027 -3.84799,-1.94672 -8.130903,-4.57108 z M 74.680463,96.8 l 6.259862,-3.84 0.0098,-4.246502 0.0098,-4.246506 -1.2,0.617139 c -0.66,0.339424 -3.584768,1.971264 -6.499485,3.626307 L 67.961,91.719606 61.580488,87.980198 c -3.509283,-2.056675 -6.475914,-3.649587 -6.592512,-3.539804 -0.116595,0.109782 -0.132707,2.08782 -0.0358,4.395638 l 0.176196,4.196032 6.275801,3.874336 c 3.45169,2.130883 6.442433,3.84267 6.646097,3.80396 0.203692,-0.0387 3.187267,-1.79836 6.630192,-3.91036 z M 66.560002,67.59295 V 47.825904 l -12.880001,-3.63631 c -7.084,-1.999968 -13.132,-3.705594 -13.44,-3.790272 -0.527862,-0.14513 -0.56,0.754614 -0.56,15.67792 v 15.831881 l 6.64,3.886381 c 12.866705,7.530858 19.762558,11.508506 20.000001,11.536352 0.132,0.01549 0.24,-8.867027 0.24,-19.738906 z m 8.405872,16.844605 c 9.656375,-5.433097 22.470724,-12.852128 23.034129,-13.335901 0.518678,-0.445363 0.56,-1.598806 0.56,-15.631251 0,-14.219459 -0.03441,-15.149785 -0.56,-15.140329 -0.308,0.0055 -6.824001,1.642259 -14.480001,3.637155 l -13.92,3.627078 -0.08242,19.882845 C 69.472248,78.41272 69.510891,87.36 69.603451,87.36 c 0.09256,0 2.505655,-1.315101 5.362423,-2.922445 z M 93.065196,38.561472 C 93.154006,38.472662 93.076588,38.4 92.893161,38.4 92.70973,38.4 87.670511,37.480378 81.694898,36.356394 L 70.830143,34.31279 57.932706,36.505427 c -7.093591,1.205952 -12.939198,2.2344 -12.990241,2.285443 -0.05104,0.05104 5.038125,1.534548 11.309261,3.296679 l 11.402065,3.203878 12.624966,-3.284243 c 6.943732,-1.80633 12.697629,-3.356902 12.786439,-3.445712 z" fill="#000000"/>
</svg>