<?xml version="1.0" encoding="UTF-8"?>
<svg viewBox="245 0 105 120" xmlns="http://www.w3.org/2000/svg">
  <path d="M 60.16531,99.51672 c -4.282915,-2.624365 -7.872208,-4.726214 -7.976211,-4.670781 -0.211498,0.11273 -8.12297,4.75976 -11.949098,7.018641 l -2.48,1.46416 v -1.67531 -1.675308 l 7.2,-4.262743 7.2,-4.262742 v -4.396723 c 0,-3.794032 -0.07676,-4.461485 -0.56,-4.869188 -0.308,-0.259856 -3.693184,-2.3131 -7.522627,-4.562764 L 37.114747,73.533661 37.197374,55.41183 37.280001,37.29 54.049182,34.428173 70.81836,31.566345 85.969183,34.400797 101.12,37.235248 V 54.905626 72.576 l -8.559998,4.942515 -8.56,4.942515 v 4.58153 4.581533 l 6.88,4.068806 6.880001,4.068807 0.09672,1.639144 c 0.0532,0.90153 0.02877,1.63915 -0.05427,1.63915 -0.08304,0 -3.33392,-1.87682 -7.224167,-4.17071 l -7.073177,-4.170711 -7.432557,4.594362 c -4.087904,2.526899 -7.587258,4.684579 -7.776343,4.794859 -0.189085,0.11027 -3.84799,-1.94672 -8.130903,-4.57108 z M 74.680463,96.8 l 6.259862,-3.84 0.0098,-4.246502 0.0098,-4.246506 -1.2,0.617139 c -0.66,0.339424 -3.584768,1.971264 -6.499485,3.626307 L 67.961,91.719606 61.580488,87.980198 c -3.509283,-2.056675 -6.475914,-3.649587 -6.592512,-3.539804 -0.116595,0.109782 -0.132707,2.08782 -0.0358,4.395638 l 0.176196,4.196032 6.275801,3.874336 c 3.45169,2.130883 6.442433,3.84267 6.646097,3.80396 0.203692,-0.0387 3.187267,-1.79836 6.630192,-3.91036 z M 66.560002,67.59295 V 47.825904 l -12.880001,-3.63631 c -7.084,-1.999968 -13.132,-3.705594 -13.44,-3.790272 -0.527862,-0.14513 -0.56,0.754614 -0.56,15.67792 v 15.831881 l 6.64,3.886381 c 12.866705,7.530858 19.762558,11.508506 20.000001,11.536352 0.132,0.01549 0.24,-8.867027 0.24,-19.738906 z m 8.405872,16.844605 c 9.656375,-5.433097 22.470724,-12.852128 23.034129,-13.335901 0.518678,-0.445363 0.56,-1.598806 0.56,-15.631251 0,-14.219459 -0.03441,-15.149785 -0.56,-15.140329 -0.308,0.0055 -6.824001,1.642259 -14.480001,3.637155 l -13.92,3.627078 -0.08242,19.882845 C 69.472248,78.41272 69.510891,87.36 69.603451,87.36 c 0.09256,0 2.505655,-1.315101 5.362423,-2.922445 z M 93.065196,38.561472 C 93.154006,38.472662 93.076588,38.4 92.893161,38.4 92.70973,38.4 87.670511,37.480378 81.694898,36.356394 L 70.830143,34.31279 57.932706,36.505427 c -7.093591,1.205952 -12.939198,2.2344 -12.990241,2.285443 -0.05104,0.05104 5.038125,1.534548 11.309261,3.296679 l 11.402065,3.203878 12.624966,-3.284243 c 6.943732,-1.80633 12.697629,-3.356902 12.786439,-3.445712 z" fill="#000000"/>
</svg>